<?xml version="1.0" encoding="utf-8"?>
<!-- Generator: Adobe Illustrator 17.0.0, SVG Export Plug-In . SVG Version: 6.00 Build 0)  -->
<!DOCTYPE svg PUBLIC "-//W3C//DTD SVG 1.1//EN" "http://www.w3.org/Graphics/SVG/1.1/DTD/svg11.dtd">
<svg version="1.1" id="Calque_1" xmlns="http://www.w3.org/2000/svg" xmlns:xlink="http://www.w3.org/1999/xlink" x="0px" y="0px"
	 width="595.28px" height="595.28px" viewBox="0 0 595.28 595.28" enable-background="new 0 0 595.28 595.28" xml:space="preserve">
<rect x="274.155" y="269.153" width="124.224" height="8.282"/>
<rect x="224.466" y="293.998" width="173.914" height="8.283"/>
<rect x="224.466" y="318.841" width="173.914" height="8.282"/>
<rect x="224.466" y="343.686" width="173.914" height="8.282"/>
<rect x="224.466" y="368.531" width="173.914" height="8.282"/>
<rect x="224.466" y="393.376" width="173.914" height="8.282"/>
<rect x="224.466" y="418.221" width="173.914" height="8.282"/>
<rect x="224.466" y="443.065" width="173.914" height="8.282"/>
<path d="M427.365,501.037H195.48V194.618h231.885V501.037z M203.761,492.755h215.322V202.9H203.761V492.755z"/>
<polygon points="199.621,476.192 170.635,476.192 170.635,169.774 402.52,169.774 402.52,198.759 394.239,198.759 394.239,178.055 
	178.917,178.055 178.917,467.91 199.621,467.91 "/>
<polygon points="174.776,451.347 145.79,451.347 145.79,144.929 377.675,144.929 377.675,173.914 369.394,173.914 369.394,153.21 
	154.072,153.21 154.072,443.065 174.776,443.065 "/>
</svg>
