<?xml version="1.0" encoding="utf-8"?>
<!-- Generator: Adobe Illustrator 17.0.0, SVG Export Plug-In . SVG Version: 6.00 Build 0)  -->
<!DOCTYPE svg PUBLIC "-//W3C//DTD SVG 1.1//EN" "http://www.w3.org/Graphics/SVG/1.1/DTD/svg11.dtd">
<svg version="1.1" id="Calque_1" xmlns="http://www.w3.org/2000/svg" xmlns:xlink="http://www.w3.org/1999/xlink" x="0px" y="0px"
	 width="595.28px" height="595.28px" viewBox="0 0 595.28 595.28" enable-background="new 0 0 595.28 595.28" xml:space="preserve">
<g>
	<path d="M192.704,413.133h-4.6c-0.597,0-59.798-0.683-59.798-59.798c0-59.112,59.2-59.796,59.798-59.796h4.6V413.133z
		 M183.504,303.042c-12.537,1.372-45.998,8.909-45.998,50.293c0,41.536,33.461,48.978,45.998,50.311V303.042z"/>
	<path d="M408.896,413.133h-4.6V293.539h4.6c0.599,0,59.798,0.684,59.798,59.796C468.694,412.45,409.495,413.133,408.896,413.133z
		 M413.496,303.072v100.555c12.545-1.372,45.998-8.912,45.998-50.293c0-21.005-8.43-35.87-25.056-44.183
		C426.406,305.136,418.353,303.635,413.496,303.072z"/>
	<path d="M404.296,298.143c0-0.268-0.201-27.103-13.455-53.424c-17.498-34.755-48.568-52.377-92.341-52.377
		c-43.775,0-74.843,17.622-92.342,52.377c-13.253,26.32-13.454,53.156-13.454,53.424l-9.2-0.004
		c0-1.15,1.315-114.996,114.996-114.996s114.996,113.846,114.996,114.996L404.296,298.143z"/>
</g>
</svg>
