<?xml version="1.0" encoding="utf-8"?>
<!-- Generator: Adobe Illustrator 17.0.0, SVG Export Plug-In . SVG Version: 6.00 Build 0)  -->
<!DOCTYPE svg PUBLIC "-//W3C//DTD SVG 1.1//EN" "http://www.w3.org/Graphics/SVG/1.1/DTD/svg11.dtd">
<svg version="1.1" id="Calque_1" xmlns="http://www.w3.org/2000/svg" xmlns:xlink="http://www.w3.org/1999/xlink" x="0px" y="0px"
	 width="595.28px" height="595.28px" viewBox="0 0 595.28 595.28" enable-background="new 0 0 595.28 595.28" xml:space="preserve">
<g>
	<path d="M297.419,432.683c-50.471,0-90.196-15.99-118.068-47.527c-23.111-26.167-34.828-57.588-34.828-93.389
		c0-40.083,14.622-74.53,43.459-102.386c30.213-29.361,69.382-44.252,116.41-44.252c38.33,0,70.598,10.229,95.908,30.404
		c26.901,21.471,40.538,50.35,40.538,85.839c0,27.938-8.632,52.268-25.658,72.318c-17.193,20.246-37.202,30.512-59.476,30.512
		c-12.088,0-21.608-3.559-28.293-10.581c-4.477-4.703-7.463-9.603-8.93-14.635c-2.83,3.901-5.829,7.307-8.973,10.185
		c-10.884,9.862-24.091,14.853-39.267,14.853c-15.556,0-28.699-5.681-39.064-16.883c-10.281-11.111-15.493-26.673-15.493-46.256
		c0-22.415,7.693-43.661,22.866-63.151c15.416-19.805,34.681-29.846,57.26-29.846c13.591,0,24.382,3.896,32.068,11.58
		c2.706,2.77,5.002,5.743,6.879,8.901l4.063-14.222h42.441l-24.449,82.903c-1.812,6.409-3.061,10.964-3.802,13.883
		c-0.689,2.695-1.037,5.029-1.037,6.938c0,2.682,0.897,5.172,2.741,7.611c1.572,2.081,4.235,3.093,8.144,3.093
		c8.852,0,18.125-6.225,27.564-18.499c9.695-12.609,14.608-29.718,14.608-50.85c0-31.38-13.063-53.275-39.935-66.94
		c-16.988-8.72-36.384-13.138-57.664-13.138c-39.195,0-71.053,12.101-94.687,35.965c-21.272,21.501-32.059,47.652-32.059,77.727
		c0,33.309,12.581,60.065,37.393,79.528c22.147,17.33,49.623,26.118,81.663,26.118c21.988,0,42.802-4.1,61.858-12.188
		c10.43-4.286,21.342-10.449,32.48-18.34l7.8-5.525l17.481,26.818l-3.013,2.334c-17.204,13.33-36.096,23.62-56.156,30.587
		C340.111,429.146,318.99,432.683,297.419,432.683z M304.392,153.4c-44.801,0-82.03,14.104-110.655,41.921
		c-27.171,26.247-40.943,58.694-40.943,96.446c0,33.725,11.021,63.303,32.756,87.913c26.232,29.683,63.871,44.733,111.869,44.733
		c20.645,0,40.853-3.382,60.06-10.053c18.038-6.265,35.102-15.343,50.771-27.009l-8.605-13.2l-0.783,0.555
		c-11.647,8.252-23.111,14.721-34.074,19.226c-20.042,8.505-41.941,12.826-65.046,12.826c-33.931,0-63.122-9.38-86.764-27.876
		c-26.918-21.116-40.564-50.061-40.564-86.041c0-32.329,11.59-60.438,34.451-83.546c25.247-25.492,59.083-38.416,100.566-38.416
		c22.605,0,43.273,4.725,61.425,14.044c29.486,14.992,44.445,39.994,44.445,74.305c0,22.998-5.492,41.801-16.321,55.89
		c-11.087,14.42-22.567,21.73-34.122,21.73c-6.588,0-11.55-2.146-14.743-6.381c-2.927-3.872-4.413-8.109-4.413-12.595
		c0-2.598,0.433-5.619,1.292-8.979c0.759-2.988,2.025-7.614,3.872-14.137l21.334-72.337H345.06l-9.757,34.138l-3.804-14.711
		c-1.597-6.169-4.792-11.742-9.504-16.562c-6.13-6.128-14.708-9.124-26.185-9.124c-20.176,0-36.771,8.719-50.734,26.655
		c-14.015,18.002-21.121,37.54-21.121,58.07c0,17.433,4.472,31.107,13.293,40.64c8.859,9.574,19.651,14.229,32.993,14.229
		c13.245,0,24.267-4.154,33.7-12.697c5.207-4.765,10.029-11.308,14.318-19.428l9.918-18.79l-2.148,21.137
		c-0.113,1.131-0.199,2.175-0.256,3.134c-0.057,0.932-0.081,1.772-0.081,2.528c0,5.506,2.523,10.828,7.711,16.28
		c5.132,5.39,12.428,8.012,22.303,8.012c19.732,0,37.622-9.283,53.17-27.593c15.72-18.512,23.692-41.043,23.692-66.966
		c0-32.846-12.592-59.552-37.423-79.373C371.336,163.022,340.803,153.4,304.392,153.4z M281.683,337.739
		c-8.618,0-15.417-3.268-20.212-9.711c-4.516-6.063-6.807-13.992-6.807-23.566c0-15.093,4.699-30.859,13.968-46.862
		c9.69-16.733,21.661-25.217,35.581-25.217c7.638,0,13.852,2.633,18.466,7.825c4.491,5.052,6.768,11.331,6.768,18.66
		c0,11.751-4.114,27.219-12.576,47.29C308.038,327.113,296.198,337.739,281.683,337.739z M304.212,240.653
		c-10.909,0-20.206,6.899-28.425,21.092c-8.528,14.727-12.853,29.098-12.853,42.717c0,7.754,1.739,14.022,5.172,18.625
		c3.193,4.294,7.634,6.381,13.577,6.381c10.874,0,20.149-8.925,27.569-26.525c7.913-18.768,11.924-33.597,11.924-44.076
		c0-5.317-1.529-9.624-4.679-13.165C313.476,242.305,309.459,240.653,304.212,240.653z"/>
</g>
</svg>
