<?xml version="1.0" encoding="utf-8"?>
<!-- Generator: Adobe Illustrator 17.0.0, SVG Export Plug-In . SVG Version: 6.00 Build 0)  -->
<!DOCTYPE svg PUBLIC "-//W3C//DTD SVG 1.1//EN" "http://www.w3.org/Graphics/SVG/1.1/DTD/svg11.dtd">
<svg version="1.1" id="Calque_1" xmlns="http://www.w3.org/2000/svg" xmlns:xlink="http://www.w3.org/1999/xlink" x="0px" y="0px"
	 width="595.28px" height="595.28px" viewBox="0 0 595.28 595.28" enable-background="new 0 0 595.28 595.28" xml:space="preserve">
<g>
	<path d="M51.242,500.59c-0.53,0-1.067-0.102-1.576-0.314c-1.54-0.639-2.544-2.141-2.544-3.808V338.945
		c0-10.862,8.837-19.701,19.699-19.701h191.405c10.862,0,19.699,8.839,19.699,19.701v117.218c0,10.862-8.837,19.698-19.699,19.698
		H77.679l-23.521,23.521C53.37,500.172,52.315,500.59,51.242,500.59z M66.821,327.488c-6.316,0-11.456,5.141-11.456,11.458v147.574
		l17.693-17.693c0.773-0.773,1.821-1.207,2.914-1.207h182.254c6.316,0,11.456-5.138,11.456-11.455V338.945
		c0-6.316-5.14-11.458-11.456-11.458H66.821z"/>
	<rect x="100.701" y="343.974" width="148.374" height="8.243"/>
	<rect x="75.972" y="368.702" width="173.103" height="8.243"/>
	<rect x="75.972" y="393.431" width="173.103" height="8.243"/>
	<rect x="75.972" y="418.16" width="173.103" height="8.243"/>
	<rect x="75.972" y="442.889" width="173.103" height="8.243"/>
	<rect x="347.989" y="170.872" width="173.103" height="8.243"/>
	<rect x="372.718" y="121.414" width="148.374" height="8.243"/>
	<rect x="347.989" y="146.143" width="173.103" height="8.243"/>
	<rect x="347.989" y="195.601" width="173.103" height="8.243"/>
	<rect x="347.989" y="220.33" width="173.103" height="8.243"/>
	<rect x="347.989" y="245.059" width="173.103" height="8.243"/>
	<rect x="347.989" y="269.788" width="173.103" height="8.243"/>
	<path d="M545.821,327.488c-1.071,0-2.125-0.419-2.914-1.207l-23.521-23.521H338.839c-10.862,0-19.701-8.836-19.701-19.698V116.383
		c0-10.862,8.839-19.698,19.701-19.698h191.405c10.862,0,19.698,8.836,19.698,19.698v206.983c0,1.666-1.004,3.169-2.544,3.808
		C546.889,327.386,546.352,327.488,545.821,327.488z M338.839,104.928c-6.316,0-11.458,5.138-11.458,11.455v166.677
		c0,6.316,5.141,11.456,11.458,11.456h182.253c1.092,0,2.141,0.435,2.914,1.207l17.693,17.692V116.383
		c0-6.316-5.138-11.455-11.455-11.455H338.839z"/>
</g>
</svg>
