<?xml version="1.0" encoding="utf-8"?>
<!-- Generator: Adobe Illustrator 17.0.0, SVG Export Plug-In . SVG Version: 6.00 Build 0)  -->
<!DOCTYPE svg PUBLIC "-//W3C//DTD SVG 1.1//EN" "http://www.w3.org/Graphics/SVG/1.1/DTD/svg11.dtd">
<svg version="1.1" id="Calque_1" xmlns="http://www.w3.org/2000/svg" xmlns:xlink="http://www.w3.org/1999/xlink" x="0px" y="0px"
	 width="595.28px" height="595.28px" viewBox="0 0 595.28 595.28" enable-background="new 0 0 595.28 595.28" xml:space="preserve">
<g>
	<g>
		<path d="M206.73,488.969c-4.513,0-8.696-0.934-12.52-2.808c-16.027-7.851-23.352-30.522-31.107-54.527
			c-1.524-4.717-3.067-9.499-4.7-14.233l7.797-2.69c1.65,4.787,3.211,9.62,4.752,14.388c7.201,22.29,14.003,43.345,26.886,49.654
			c5.609,2.755,12.303,2.65,20.468-0.306c25.865-9.359,54.524-58.678,54.81-59.174l0.698-1.211l1.289-0.537
			c25.804-10.753,43.366-54.17,43.541-54.605l0.419-0.789c22.889-33.746,28.274-115.828,0.631-167.144
			c-10.914-20.261-32.033-44.294-70.236-43.788c-98.288,1.321-110.076,116.723-110.183,117.889l-8.213-0.757
			c0.114-1.24,12.662-123.959,118.286-125.379c33.443-0.413,60.404,16.188,77.609,48.124c29.34,54.468,23.64,138.749-0.819,175.317
			c-2.014,4.916-19.428,45.831-46.569,58.184c-4.76,8.014-31.859,52.003-58.455,61.626
			C216.015,488.048,211.209,488.969,206.73,488.969z"/>
		<path d="M266.515,387.068v-8.248c17.414,0,34.181-29.329,44.851-78.46c9.18-42.277-22.514-65.716-22.836-65.948l-1.985-1.434
			l0.309-2.435c0.028-0.216,2.624-21.808-8.193-35.627c-5.017-6.407-12.282-10.225-21.597-11.349
			c-21.251-0.533-37.222,4.674-47.545,15.48c-14.242,14.906-12.903,35.847-12.889,36.056l-8.224,0.623
			c-0.077-0.999-1.686-24.681,15.074-42.297c12.03-12.646,30.189-18.735,53.99-18.101l0.368,0.027
			c11.689,1.363,20.891,6.246,27.348,14.518c10.756,13.775,10.525,32.781,10.066,39.386c7.349,6.296,33.096,31.767,24.175,72.853
			C303.373,376.03,279.385,387.068,266.515,387.068z"/>
		<path d="M196.856,406.949c-7.479,0-11.221-3.233-13.091-5.987c-6.552-9.639,0.435-26.929,1.254-28.87
			c5.044-10.817-9.126-21.321-9.27-21.425l-1.032-0.754l-0.426-1.206c-4.323-12.246-3.8-20.934,1.551-25.82
			c9.996-9.134,32.094,0.593,34.581,1.737l-3.434,7.499c-6.316-2.886-20.882-7.451-25.587-3.144
			c-2.482,2.271-2.376,7.883,0.283,15.865c4.073,3.329,17.707,15.943,10.87,30.597c-2.347,5.601-5.03,16.394-1.967,20.891
			c0.417,0.615,1.661,2.475,6.461,2.376c26.512-2.151,28.627-9.98,31.557-20.818c3.528-13.054,7.911-29.265,51.77-36.665
			c6.967-9.663,15.89-26.153,12.638-33.346c-0.397-0.878-1.607-3.552-8.315-4.07c-38.815-2.986-44.625-13.493-47.831-25.893
			c-0.499-1.938-0.933-3.611-1.646-4.929c-2.961-5.469-25.223-22.275-36.993-19.378c-1.728,0.428-6.986,1.726-7.136,14.689
			c-0.173,14.834,6.123,25.772,18.714,32.51c9.692,5.187,19.465,5.877,19.562,5.883l-0.537,8.232
			c-0.466-0.032-46.489-3.536-45.986-46.721c0.185-15.986,7.393-21.112,13.406-22.599c16.983-4.194,42.324,16.252,46.227,23.459
			c1.192,2.204,1.795,4.536,2.377,6.79c2.054,7.95,4.382,16.959,40.478,19.735c9.572,0.736,13.549,5.245,15.198,8.899
			c6.508,14.396-12.36,40.131-14.533,43.017l-1,1.329l-1.643,0.263c-40.158,6.425-43.527,18.891-46.785,30.948
			c-3.841,14.211-8.892,24.459-39.093,26.9C197.265,406.947,197.06,406.949,196.856,406.949z"/>
	</g>
	<rect x="377.485" y="98.73" transform="matrix(0.7071 0.7071 -0.7071 0.7071 212.0285 -228.3097)" width="8.247" height="86.112"/>
	
		<rect x="322.449" y="441.257" transform="matrix(0.7071 0.7071 -0.7071 0.7071 424.7484 -134.6723)" width="104.979" height="8.247"/>
	
		<rect x="379.818" y="354.653" transform="matrix(0.8321 0.5547 -0.5547 0.8321 270.296 -175.1724)" width="89.215" height="8.248"/>
	
		<rect x="420.302" y="165.709" transform="matrix(0.5547 0.8321 -0.8321 0.5547 363.9902 -259.4896)" width="8.248" height="89.215"/>
</g>
</svg>
