<?xml version="1.0" encoding="utf-8"?>
<!-- Generator: Adobe Illustrator 17.0.0, SVG Export Plug-In . SVG Version: 6.00 Build 0)  -->
<!DOCTYPE svg PUBLIC "-//W3C//DTD SVG 1.1//EN" "http://www.w3.org/Graphics/SVG/1.1/DTD/svg11.dtd">
<svg version="1.1" id="Calque_1" xmlns="http://www.w3.org/2000/svg" xmlns:xlink="http://www.w3.org/1999/xlink" x="0px" y="0px"
	 width="595.28px" height="595.28px" viewBox="0 0 595.28 595.28" enable-background="new 0 0 595.28 595.28" xml:space="preserve">
<g>
	<path d="M427.365,451.347h-256.73V244.308h256.73V451.347z M178.917,443.065h240.167V252.59H178.917V443.065z"/>
	<path d="M394.239,248.453c0-0.241-0.181-24.399-12.112-48.092c-15.752-31.287-43.721-47.15-83.126-47.15
		c-39.406,0-67.374,15.864-83.127,47.15c-11.93,23.694-12.111,47.851-12.111,48.092l-8.282-0.004
		c0-1.035,1.183-103.52,103.52-103.52s103.52,102.485,103.52,103.52L394.239,248.453z"/>
</g>
<rect x="348.69" y="293.998" width="74.535" height="8.283"/>
<rect x="348.69" y="343.686" width="74.535" height="8.282"/>
<rect x="348.69" y="393.376" width="74.535" height="8.282"/>
</svg>
