<?xml version="1.0" encoding="utf-8"?>
<!-- Generator: Adobe Illustrator 17.0.0, SVG Export Plug-In . SVG Version: 6.00 Build 0)  -->
<!DOCTYPE svg PUBLIC "-//W3C//DTD SVG 1.1//EN" "http://www.w3.org/Graphics/SVG/1.1/DTD/svg11.dtd">
<svg version="1.1" id="Calque_1" xmlns="http://www.w3.org/2000/svg" xmlns:xlink="http://www.w3.org/1999/xlink" x="0px" y="0px"
	 width="595.28px" height="595.28px" viewBox="0 0 595.28 595.28" enable-background="new 0 0 595.28 595.28" xml:space="preserve">
<path d="M400.987,475.396H169.489V221.517l52.029-52.028h179.469V475.396z M177.757,467.129h214.962V177.758H224.942l-47.184,47.183
	V467.129z"/>
<polygon points="227.364,227.364 173.623,227.363 173.623,219.095 219.096,219.097 219.096,173.624 227.364,173.624 "/>
<rect x="248.033" y="243.9" width="124.017" height="8.268"/>
<rect x="198.427" y="268.703" width="173.623" height="8.268"/>
<rect x="198.427" y="293.507" width="173.623" height="8.269"/>
<rect x="198.427" y="318.309" width="173.623" height="8.268"/>
<rect x="198.427" y="343.112" width="173.623" height="8.268"/>
<rect x="198.427" y="367.915" width="173.623" height="8.268"/>
<rect x="198.427" y="392.719" width="173.623" height="8.268"/>
<rect x="198.427" y="417.522" width="173.623" height="8.268"/>
</svg>
