<?xml version="1.0" encoding="utf-8"?>
<!-- Generator: Adobe Illustrator 17.0.0, SVG Export Plug-In . SVG Version: 6.00 Build 0)  -->
<!DOCTYPE svg PUBLIC "-//W3C//DTD SVG 1.1//EN" "http://www.w3.org/Graphics/SVG/1.1/DTD/svg11.dtd">
<svg version="1.1" id="Calque_1" xmlns="http://www.w3.org/2000/svg" xmlns:xlink="http://www.w3.org/1999/xlink" x="0px" y="0px"
	 width="595.28px" height="595.28px" viewBox="0 0 595.28 595.28" enable-background="new 0 0 595.28 595.28" xml:space="preserve">
<g>
	<g>
		<path d="M310.656,261.514c-38.666,0-70.123-31.458-70.123-70.124s31.457-70.124,70.123-70.124s70.124,31.458,70.124,70.124
			S349.322,261.514,310.656,261.514z M310.656,129.515c-34.117,0-61.873,27.756-61.873,61.874s27.756,61.874,61.873,61.874
			s61.874-27.756,61.874-61.874S344.773,129.515,310.656,129.515z"/>
		<path d="M243.098,282.529l-4.939-6.609c29.97-22.399,70.776-22.656,72.497-22.656l0.003,8.25
			C310.264,261.514,270.831,261.801,243.098,282.529z"/>
		<path d="M348.033,267.708c-19.733-6.103-37.205-6.194-37.38-6.194l0.003-8.25c0.76,0,18.834,0.075,39.816,6.562L348.033,267.708z"
			/>
		<path d="M310.656,245.014c-18,0-35.192-16.985-35.915-17.708l5.83-5.836c0.154,0.153,15.521,15.294,30.085,15.294
			c14.566,0,29.933-15.141,30.086-15.294l5.83,5.836C345.85,228.029,328.657,245.014,310.656,245.014z"/>
	</g>
	<g>
		<path d="M186.909,311.012c-38.666,0-70.124-31.457-70.124-70.123s31.458-70.124,70.124-70.124s70.124,31.458,70.124,70.124
			S225.575,311.012,186.909,311.012z M186.909,179.015c-34.118,0-61.874,27.756-61.874,61.874c0,34.117,27.756,61.873,61.874,61.873
			s61.874-27.756,61.874-61.873C248.783,206.771,221.027,179.015,186.909,179.015z"/>
		<path d="M92.035,422.386h-8.25v-33c0-85.633,102.093-86.624,103.124-86.624l0.003,8.25c-0.242,0-24.413,0.145-48.125,10.081
			c-31.023,13.003-46.752,35.981-46.752,68.293V422.386z"/>
		<path d="M290.033,422.386h-8.25v-33c0-32.39-15.8-55.394-46.962-68.379c-23.713-9.88-47.673-9.996-47.912-9.996v-8.25
			c1.031,0,103.124,0.991,103.124,86.624V422.386z"/>
		<path d="M186.909,294.514c-18.001,0-35.194-16.985-35.916-17.708l5.83-5.836c0.154,0.153,15.521,15.294,30.086,15.294
			c14.565,0,29.931-15.141,30.086-15.294l5.83,5.836C222.103,277.529,204.91,294.514,186.909,294.514z"/>
	</g>
	<g>
		<path d="M409.655,360.512c-38.666,0-70.124-31.458-70.124-70.123c0-38.666,31.458-70.124,70.124-70.124
			s70.124,31.458,70.124,70.124C479.78,329.053,448.322,360.512,409.655,360.512z M409.655,228.514
			c-34.117,0-61.874,27.756-61.874,61.874s27.758,61.873,61.874,61.873s61.874-27.755,61.874-61.873
			S443.772,228.514,409.655,228.514z"/>
		<path d="M314.781,471.886h-8.25v-33c0-85.633,102.093-86.624,103.124-86.624l0.003,8.25c-0.242,0-24.411,0.145-48.125,10.081
			c-31.023,13.003-46.752,35.981-46.752,68.293V471.886z"/>
		<path d="M512.779,471.886h-8.25v-33c0-32.39-15.799-55.394-46.962-68.379c-23.713-9.88-47.673-9.996-47.912-9.996v-8.25
			c1.031,0,103.124,0.991,103.124,86.624V471.886z"/>
		<path d="M411.025,344.033c-0.497,0-0.996-0.008-1.504-0.024c-23.042-0.744-35.656-17.459-36.182-18.17l6.625-4.914
			c0.107,0.142,10.876,14.228,29.825,14.84c19.406,0.65,28.982-13.959,29.38-14.582l6.982,4.396
			C445.668,326.346,434.308,344.033,411.025,344.033z"/>
	</g>
</g>
</svg>
