<?xml version="1.0" encoding="utf-8"?>
<!-- Generator: Adobe Illustrator 17.0.0, SVG Export Plug-In . SVG Version: 6.00 Build 0)  -->
<!DOCTYPE svg PUBLIC "-//W3C//DTD SVG 1.1//EN" "http://www.w3.org/Graphics/SVG/1.1/DTD/svg11.dtd">
<svg version="1.1" id="Calque_1" xmlns="http://www.w3.org/2000/svg" xmlns:xlink="http://www.w3.org/1999/xlink" x="0px" y="0px"
	 width="595.28px" height="595.28px" viewBox="0 0 595.28 595.28" enable-background="new 0 0 595.28 595.28" xml:space="preserve">
<g>
	<path d="M447.225,445.509c-2.115,0-51.002-1.117-76.882-95.955c-8.901,7.53-27.906,21.358-47.446,21.358h-49.73
		c-19.538,0-38.544-13.828-47.447-21.358c-25.88,94.838-74.767,95.955-76.881,95.955c-15.76,0-26.719-5.245-32.575-15.587
		c-17.787-31.417,20.618-100.55,27.917-113.139c-1.844-4.368-5.702-15.023-5.702-27.719c0-14.914,5.468-35.342,31.082-49.14v-22.348
		l4.144-4.144h49.731l4.144,4.144v15.672c9.513-7.727,27.317-19.816,45.587-19.816h49.73c18.269,0,36.074,12.089,45.587,19.816
		v-15.672l4.144-4.144h49.731l4.144,4.144v22.348c25.616,13.798,31.082,34.227,31.082,49.14c0,12.696-3.858,23.351-5.701,27.719
		c7.298,12.589,45.703,81.723,27.915,113.139C473.945,440.264,462.985,445.509,447.225,445.509z M177.849,221.719v20.721
		l-2.291,3.707c-45.356,22.677-23.943,67.16-23.009,69.04l-0.156,3.98c-12.778,21.31-42.882,82.009-28.914,106.672
		c4.337,7.657,12.632,11.381,25.361,11.381c0.437-0.005,46.939-1.77,70.577-96.325l6.949-1.926
		c0.237,0.237,23.977,23.654,46.803,23.654h49.73c22.826,0,46.566-23.417,46.804-23.654l6.948,1.926
		c23.557,94.226,69.816,96.306,70.601,96.325c12.713-0.005,21.002-3.726,25.338-11.381c13.965-24.663-16.137-85.362-28.915-106.672
		l-0.154-3.985c0.931-1.875,22.346-46.357-23.012-69.035l-2.291-3.707v-20.721h-41.443v20.721l-7.072,2.933
		c-0.237-0.237-23.978-23.654-46.804-23.654h-49.73c-22.826,0-46.565,23.417-46.803,23.654l-7.073-2.933v-20.721H177.849z"/>
	<path d="M194.252,321.181c-18.378,0-33.33-14.95-33.33-33.328c0-18.377,14.952-33.328,33.33-33.328
		c18.377,0,33.328,14.952,33.328,33.328C227.58,306.231,212.628,321.181,194.252,321.181z M194.252,262.813
		c-13.808,0-25.041,11.232-25.041,25.04c0,13.807,11.234,25.04,25.041,25.04c13.808,0,25.04-11.232,25.04-25.04
		C219.291,274.045,208.059,262.813,194.252,262.813z"/>
	<path fill="none" stroke="#000000" stroke-width="3" stroke-miterlimit="10" d="M173.704,242.44"/>
	<path d="M194.252,286.289c-6.76,0-12.259-5.499-12.259-12.259c0-6.76,5.499-12.259,12.259-12.259
		c6.759,0,12.257,5.499,12.257,12.259C206.509,280.79,201.01,286.289,194.252,286.289z M194.252,270.06
		c-2.189,0-3.97,1.781-3.97,3.97c0,2.189,1.781,3.97,3.97,3.97c2.188,0,3.969-1.781,3.969-3.97
		C198.221,271.841,196.44,270.06,194.252,270.06z"/>
	<path d="M194.252,313.934c-6.76,0-12.259-5.499-12.259-12.257c0-6.76,5.499-12.259,12.259-12.259
		c6.759,0,12.257,5.499,12.257,12.259C206.509,308.435,201.01,313.934,194.252,313.934z M194.252,297.706
		c-2.189,0-3.97,1.781-3.97,3.97c0,2.188,1.781,3.969,3.97,3.969c2.188,0,3.969-1.781,3.969-3.969
		C198.221,299.487,196.44,297.706,194.252,297.706z"/>
	<path d="M208.074,300.111c-6.76,0-12.259-5.499-12.259-12.259c0-6.759,5.499-12.257,12.259-12.257s12.259,5.499,12.259,12.257
		C220.333,294.613,214.834,300.111,208.074,300.111z M208.074,283.884c-2.189,0-3.97,1.781-3.97,3.969c0,2.189,1.781,3.97,3.97,3.97
		c2.19,0,3.97-1.781,3.97-3.97C212.044,285.664,210.264,283.884,208.074,283.884z"/>
	<path d="M180.429,300.111c-6.76,0-12.259-5.499-12.259-12.259c0-6.759,5.499-12.257,12.259-12.257
		c6.759,0,12.257,5.499,12.257,12.257C192.687,294.613,187.188,300.111,180.429,300.111z M180.429,283.884
		c-2.19,0-3.97,1.781-3.97,3.969c0,2.189,1.781,3.97,3.97,3.97c2.188,0,3.969-1.781,3.969-3.97
		C184.398,285.664,182.617,283.884,180.429,283.884z"/>
	<path d="M401.814,276.62c-6.759,0-12.257-5.499-12.257-12.259c0-6.759,5.499-12.257,12.257-12.257
		c6.759,0,12.257,5.499,12.257,12.257C414.071,271.122,408.572,276.62,401.814,276.62z M401.814,260.393
		c-2.188,0-3.969,1.781-3.969,3.969c0,2.19,1.781,3.97,3.969,3.97c2.188,0,3.969-1.781,3.969-3.97
		C405.782,262.173,404.002,260.393,401.814,260.393z"/>
	<path d="M401.814,324.993c-6.759,0-12.257-5.499-12.257-12.26c0-6.759,5.499-12.257,12.257-12.257
		c6.759,0,12.257,5.499,12.257,12.257C414.071,319.494,408.572,324.993,401.814,324.993z M401.814,308.764
		c-2.188,0-3.969,1.781-3.969,3.969c0,2.191,1.781,3.972,3.969,3.972c2.188,0,3.969-1.781,3.969-3.972
		C405.782,310.545,404.002,308.764,401.814,308.764z"/>
	<path d="M426.695,300.111c-6.761,0-12.26-5.499-12.26-12.259c0-6.759,5.499-12.257,12.26-12.257
		c6.759,0,12.257,5.499,12.257,12.257C438.953,294.613,433.454,300.111,426.695,300.111z M426.695,283.884
		c-2.191,0-3.972,1.781-3.972,3.969c0,2.189,1.781,3.97,3.972,3.97c2.188,0,3.969-1.781,3.969-3.97
		C430.664,285.664,428.884,283.884,426.695,283.884z"/>
	<path d="M376.934,300.111c-6.761,0-12.26-5.499-12.26-12.259c0-6.759,5.499-12.257,12.26-12.257
		c6.759,0,12.257,5.499,12.257,12.257C389.192,294.613,383.693,300.111,376.934,300.111z M376.934,283.884
		c-2.191,0-3.972,1.781-3.972,3.969c0,2.189,1.781,3.97,3.972,3.97c2.188,0,3.969-1.781,3.969-3.97
		C380.903,285.664,379.123,283.884,376.934,283.884z"/>
	<path d="M351.907,271.451h-107.75v-33.154h107.75V271.451z M252.446,263.162h91.173v-16.577h-91.173V263.162z"/>
	<path d="M293.883,347.428h-44.206v-18.649h44.206V347.428z M257.966,339.139h27.629v-2.072h-27.629V339.139z"/>
	<path d="M346.387,347.428h-44.206v-18.649h44.206V347.428z M310.469,339.139h27.629v-2.072h-27.629V339.139z"/>
	<rect x="169.56" y="238.296" width="58.02" height="8.289"/>
	<rect x="368.484" y="238.296" width="58.02" height="8.289"/>
</g>
</svg>
