<?xml version="1.0" encoding="utf-8"?>
<!-- Generator: Adobe Illustrator 17.0.0, SVG Export Plug-In . SVG Version: 6.00 Build 0)  -->
<!DOCTYPE svg PUBLIC "-//W3C//DTD SVG 1.1//EN" "http://www.w3.org/Graphics/SVG/1.1/DTD/svg11.dtd">
<svg version="1.1" id="Calque_1" xmlns="http://www.w3.org/2000/svg" xmlns:xlink="http://www.w3.org/1999/xlink" x="0px" y="0px"
	 width="124px" height="118px" viewBox="0 0 124 118" enable-background="new 0 0 124 118" xml:space="preserve">
<g>
	<path fill="#CAFFFF" stroke="#000000" stroke-width="0.75" d="M53.382,29.432c-2.181,2.549-8.459,0.654-13.017-3.247
		c-4.558-3.903-0.655-8.46-0.655-8.46s3.902-4.558,8.46-0.656C52.728,20.972,55.564,26.884,53.382,29.432z"/>
	<path d="M36.482,46.257l-5.657-17.088c0,0-8.544,2.828-5.716,11.372C27.938,49.085,36.482,46.257,36.482,46.257z"/>
	<path fill="#7C7C7C" d="M56.458,20.684l5.656,17.088c0,0,8.544-2.829,5.716-11.373C65.002,17.856,56.458,20.684,56.458,20.684z"/>
	
		<rect x="33.426" y="27.299" transform="matrix(0.9493 -0.3142 0.3142 0.9493 -9.4855 13.7565)" fill="#FFE300" width="9" height="18"/>
	
		<rect x="50.513" y="21.643" transform="matrix(0.9493 -0.3142 0.3142 0.9493 -6.8423 18.8394)" fill="#FFE300" width="9" height="18"/>
	<rect x="41.969" y="24.47" transform="matrix(0.9493 -0.3143 0.3143 0.9493 -8.1648 16.3009)" width="9" height="18"/>
	<path fill="#CAFFFF" stroke="#000000" stroke-width="0.75" d="M46.336,30.149c-1.575,2.961-8.114,2.479-13.411-0.339
		c-5.297-2.818-2.479-8.116-2.479-8.116s2.818-5.297,8.114-2.479C43.857,22.035,47.912,27.187,46.336,30.149z"/>
</g>
<g>
	<path fill="#CAFFFF" stroke="#000000" stroke-width="0.75" d="M85.633,61.372c1.918,2.752,8.353,1.487,13.274-1.945
		c4.921-3.434,1.488-8.354,1.488-8.354s-3.433-4.921-8.354-1.488C87.12,53.019,83.714,58.622,85.633,61.372z"/>
	<path d="M100.789,79.786l7.318-16.445c0,0,8.223,3.659,4.564,11.881C109.012,83.444,100.789,79.786,100.789,79.786z"/>
	<path fill="#7C7C7C" d="M83.438,52.364L76.121,68.81c0,0-8.223-3.659-4.564-11.882S83.438,52.364,83.438,52.364z"/>
	
		<rect x="95.836" y="60.734" transform="matrix(-0.9137 -0.4065 0.4065 -0.9137 163.6618 174.2326)" fill="#FFE300" width="9" height="18"/>
	
		<rect x="79.391" y="53.416" transform="matrix(-0.9137 -0.4065 0.4065 -0.9137 135.1658 153.5445)" fill="#FFE300" width="9" height="18"/>
	<rect x="87.614" y="57.074" transform="matrix(-0.9136 -0.4065 0.4065 -0.9136 149.4086 163.8912)" width="9" height="18"/>
	<path fill="#CAFFFF" stroke="#000000" stroke-width="0.75" d="M92.575,62.782c1.275,3.103,7.83,3.268,13.379,0.987
		c5.55-2.281,3.268-7.831,3.268-7.831s-2.281-5.549-7.83-3.268C95.843,54.953,91.299,59.68,92.575,62.782z"/>
</g>
<g>
	<path fill="#CAFFFF" stroke="#000000" stroke-width="0.75" d="M42.718,83.25c-1.918,2.752-8.353,1.487-13.274-1.945
		c-4.921-3.434-1.488-8.354-1.488-8.354s3.433-4.921,8.354-1.488C41.231,74.896,44.637,80.499,42.718,83.25z"/>
	<path d="M27.562,101.663l-7.318-16.445c0,0-8.223,3.659-4.564,11.881C19.339,105.322,27.562,101.663,27.562,101.663z"/>
	<path fill="#7C7C7C" d="M44.913,74.241l7.317,16.446c0,0,8.223-3.659,4.564-11.882C53.136,70.583,44.913,74.241,44.913,74.241z"/>
	
		<rect x="23.515" y="82.611" transform="matrix(0.9137 -0.4065 0.4065 0.9137 -34.821 19.2986)" fill="#FFE300" width="9" height="18"/>
	
		<rect x="39.96" y="75.294" transform="matrix(0.9137 -0.4065 0.4065 0.9137 -30.4262 25.3516)" fill="#FFE300" width="9" height="18"/>
	<rect x="31.737" y="78.952" transform="matrix(0.9136 -0.4065 0.4065 0.9136 -32.6271 22.3288)" width="9" height="18"/>
	<path fill="#CAFFFF" stroke="#000000" stroke-width="0.75" d="M35.776,84.66c-1.275,3.103-7.83,3.268-13.379,0.987
		c-5.55-2.281-3.268-7.831-3.268-7.831s2.281-5.549,7.83-3.268C32.508,76.83,37.052,81.557,35.776,84.66z"/>
</g>
</svg>
