<?xml version="1.0" encoding="utf-8"?>
<!-- Generator: Adobe Illustrator 17.0.0, SVG Export Plug-In . SVG Version: 6.00 Build 0)  -->
<!DOCTYPE svg PUBLIC "-//W3C//DTD SVG 1.1//EN" "http://www.w3.org/Graphics/SVG/1.1/DTD/svg11.dtd">
<svg version="1.1" id="Calque_1" xmlns="http://www.w3.org/2000/svg" xmlns:xlink="http://www.w3.org/1999/xlink" x="0px" y="0px"
	 width="595.28px" height="595.28px" viewBox="0 0 595.28 595.28" enable-background="new 0 0 595.28 595.28" xml:space="preserve">
<g>
	<path d="M83.036,470.366c-0.53,0-1.067-0.102-1.576-0.314c-1.54-0.639-2.544-2.141-2.544-3.808V161.196
		c0-18.906,15.382-34.287,34.288-34.287h370.658c18.906,0,34.287,15.38,34.287,34.287v226.995c0,18.906-15.38,34.287-34.287,34.287
		h-351.23l-46.681,46.681C85.164,469.947,84.109,470.366,83.036,470.366z M113.204,135.153c-14.361,0-26.045,11.683-26.045,26.044
		v295.098l40.853-40.853c0.773-0.773,1.821-1.207,2.914-1.207h352.936c14.361,0,26.044-11.683,26.044-26.044V161.196
		c0-14.361-11.683-26.044-26.044-26.044H113.204z"/>
	<rect x="178.814" y="174.797" width="287.328" height="8.243"/>
	<rect x="130.925" y="222.685" width="335.216" height="8.243"/>
	<rect x="130.925" y="270.573" width="335.216" height="8.243"/>
	<rect x="130.925" y="318.461" width="335.216" height="8.243"/>
	<rect x="130.925" y="366.349" width="335.216" height="8.243"/>
</g>
</svg>
