<?xml version="1.0" encoding="utf-8"?>
<!-- Generator: Adobe Illustrator 17.0.0, SVG Export Plug-In . SVG Version: 6.00 Build 0)  -->
<!DOCTYPE svg PUBLIC "-//W3C//DTD SVG 1.1//EN" "http://www.w3.org/Graphics/SVG/1.1/DTD/svg11.dtd">
<svg version="1.1" id="Calque_1" xmlns="http://www.w3.org/2000/svg" xmlns:xlink="http://www.w3.org/1999/xlink" x="0px" y="0px"
	 width="595.28px" height="595.28px" viewBox="0 0 595.28 595.28" enable-background="new 0 0 595.28 595.28" xml:space="preserve">
<g>
	<path d="M211.397,476.99c-23.258,0-41.477-12.754-41.477-29.034s18.219-29.034,41.477-29.034s41.478,12.754,41.478,29.034
		S234.655,476.99,211.397,476.99z M211.397,427.217c-17.987,0-33.182,9.497-33.182,20.739c0,11.242,15.195,20.739,33.182,20.739
		s33.182-9.497,33.182-20.739C244.579,436.715,229.384,427.217,211.397,427.217z"/>
	<path d="M385.603,402.331c-23.258,0-41.478-12.754-41.478-29.034s18.219-29.034,41.478-29.034s41.478,12.754,41.478,29.034
		S408.861,402.331,385.603,402.331z M385.603,352.558c-17.987,0-33.182,9.497-33.182,20.739c0,11.242,15.195,20.739,33.182,20.739
		s33.182-9.497,33.182-20.739C418.785,362.055,403.59,352.558,385.603,352.558z"/>
	<path fill="none" stroke="#000000" stroke-width="3" stroke-miterlimit="10" d="M174.068,447.957"/>
	<polygon points="252.875,447.956 244.579,447.956 244.579,196.357 427.08,118.143 427.08,373.297 418.785,373.297 418.785,130.723 
		252.875,201.828 	"/>
	
		<rect x="331.682" y="91.884" transform="matrix(0.3938 0.9192 -0.9192 0.3938 375.1303 -195.5484)" width="8.296" height="189.53"/>
</g>
</svg>
