<?xml version="1.0" encoding="utf-8"?>
<!-- Generator: Adobe Illustrator 17.0.0, SVG Export Plug-In . SVG Version: 6.00 Build 0)  -->
<!DOCTYPE svg PUBLIC "-//W3C//DTD SVG 1.1//EN" "http://www.w3.org/Graphics/SVG/1.1/DTD/svg11.dtd">
<svg version="1.1" id="Calque_1" xmlns="http://www.w3.org/2000/svg" xmlns:xlink="http://www.w3.org/1999/xlink" x="0px" y="0px"
	 width="595.28px" height="595.28px" viewBox="0 0 595.28 595.28" enable-background="new 0 0 595.28 595.28" xml:space="preserve">
<g>
	<path d="M129.552,178.615H71.851v-57.701h57.701V178.615z M80.094,170.372h41.215v-41.215H80.094V170.372z"/>
	<path d="M179.009,178.615h-57.701v-57.701h57.701V178.615z M129.552,170.372h41.215v-41.215h-41.215V170.372z"/>
	<path d="M228.467,178.615h-57.701v-57.701h57.701V178.615z M179.009,170.372h41.215v-41.215h-41.215V170.372z"/>
	<path d="M277.925,178.615h-57.701v-57.701h57.701V178.615z M228.467,170.372h41.215v-41.215h-41.215V170.372z"/>
	<path d="M327.384,178.615h-57.702v-57.701h57.702V178.615z M277.925,170.372h41.216v-41.215h-41.216V170.372z"/>
	<path d="M376.842,178.615h-57.701v-57.701h57.701V178.615z M327.384,170.372h41.215v-41.215h-41.215V170.372z"/>
	<path d="M426.3,178.615h-57.701v-57.701H426.3V178.615z M376.842,170.372h41.215v-41.215h-41.215V170.372z"/>
	<path d="M475.758,178.615h-57.701v-57.701h57.701V178.615z M426.3,170.372h41.215v-41.215H426.3V170.372z"/>
	<path d="M525.216,178.615h-57.701v-57.701h57.701V178.615z M475.758,170.372h41.215v-41.215h-41.215V170.372z"/>
	<path d="M525.216,228.073h-57.701v-57.701h57.701V228.073z M475.758,219.83h41.215v-41.215h-41.215V219.83z"/>
	<path d="M475.758,228.073h-57.701v-57.701h57.701V228.073z M426.3,219.83h41.215v-41.215H426.3V219.83z"/>
	<path d="M426.3,228.073h-57.701v-57.701H426.3V228.073z M376.842,219.83h41.215v-41.215h-41.215V219.83z"/>
	<path d="M376.842,228.073h-57.701v-57.701h57.701V228.073z M327.384,219.83h41.215v-41.215h-41.215V219.83z"/>
	<path d="M327.384,228.073h-57.702v-57.701h57.702V228.073z M277.925,219.83h41.216v-41.215h-41.216V219.83z"/>
	<path d="M277.925,228.073h-57.701v-57.701h57.701V228.073z M228.467,219.83h41.215v-41.215h-41.215V219.83z"/>
	<path d="M228.467,228.073h-57.701v-57.701h57.701V228.073z M179.009,219.83h41.215v-41.215h-41.215V219.83z"/>
	<path d="M179.009,228.073h-57.701v-57.701h57.701V228.073z M129.552,219.83h41.215v-41.215h-41.215V219.83z"/>
	<path d="M129.552,228.073H71.851v-57.701h57.701V228.073z M80.094,219.83h41.215v-41.215H80.094V219.83z"/>
	<path d="M129.552,277.531H71.851V219.83h57.701V277.531z M80.094,269.288h41.215v-41.215H80.094V269.288z"/>
	<path d="M129.552,326.988H71.851v-57.699h57.701V326.988z M80.094,318.745h41.215v-41.214H80.094V318.745z"/>
	<path d="M129.552,376.445H71.851v-57.701h57.701V376.445z M80.094,368.202h41.215v-41.215H80.094V368.202z"/>
	<path d="M129.552,425.903H71.851v-57.701h57.701V425.903z M80.094,417.66h41.215v-41.215H80.094V417.66z"/>
	<path d="M129.552,475.361H71.851V417.66h57.701V475.361z M80.094,467.118h41.215v-41.215H80.094V467.118z"/>
	<path d="M179.009,475.361h-57.701V417.66h57.701V475.361z M129.552,467.118h41.215v-41.215h-41.215V467.118z"/>
	<path d="M179.009,425.903h-57.701v-57.701h57.701V425.903z M129.552,417.66h41.215v-41.215h-41.215V417.66z"/>
	<path d="M179.009,376.445h-57.701v-57.701h57.701V376.445z M129.552,368.202h41.215v-41.215h-41.215V368.202z"/>
	<path d="M179.009,326.988h-57.701v-57.699h57.701V326.988z M129.552,318.745h41.215v-41.214h-41.215V318.745z"/>
	<path d="M179.009,277.531h-57.701V219.83h57.701V277.531z M129.552,269.288h41.215v-41.215h-41.215V269.288z"/>
	<path d="M228.467,475.361h-57.701V417.66h57.701V475.361z M179.009,467.118h41.215v-41.215h-41.215V467.118z"/>
	<path d="M228.467,425.903h-57.701v-57.701h57.701V425.903z M179.009,417.66h41.215v-41.215h-41.215V417.66z"/>
	<path d="M228.467,376.445h-57.701v-57.701h57.701V376.445z M179.009,368.202h41.215v-41.215h-41.215V368.202z"/>
	<path d="M228.467,326.988h-57.701v-57.699h57.701V326.988z M179.009,318.745h41.215v-41.214h-41.215V318.745z"/>
	<path d="M228.467,277.531h-57.701V219.83h57.701V277.531z M179.009,269.288h41.215v-41.215h-41.215V269.288z"/>
	<path d="M277.925,475.361h-57.701V417.66h57.701V475.361z M228.467,467.118h41.215v-41.215h-41.215V467.118z"/>
	<path d="M277.925,425.903h-57.701v-57.701h57.701V425.903z M228.467,417.66h41.215v-41.215h-41.215V417.66z"/>
	<path d="M277.925,376.445h-57.701v-57.701h57.701V376.445z M228.467,368.202h41.215v-41.215h-41.215V368.202z"/>
	<path d="M277.925,326.988h-57.701v-57.699h57.701V326.988z M228.467,318.745h41.215v-41.214h-41.215V318.745z"/>
	<path d="M277.925,277.531h-57.701V219.83h57.701V277.531z M228.467,269.288h41.215v-41.215h-41.215V269.288z"/>
	<path d="M327.384,475.361h-57.702V417.66h57.702V475.361z M277.925,467.118h41.216v-41.215h-41.216V467.118z"/>
	<path d="M327.384,425.903h-57.702v-57.701h57.702V425.903z M277.925,417.66h41.216v-41.215h-41.216V417.66z"/>
	<path d="M327.384,376.445h-57.702v-57.701h57.702V376.445z M277.925,368.202h41.216v-41.215h-41.216V368.202z"/>
	<path d="M327.384,326.988h-57.702v-57.699h57.702V326.988z M277.925,318.745h41.216v-41.214h-41.216V318.745z"/>
	<path d="M327.384,277.531h-57.702V219.83h57.702V277.531z M277.925,269.288h41.216v-41.215h-41.216V269.288z"/>
	<path d="M376.842,475.361h-57.701V417.66h57.701V475.361z M327.384,467.118h41.215v-41.215h-41.215V467.118z"/>
	<path d="M376.842,425.903h-57.701v-57.701h57.701V425.903z M327.384,417.66h41.215v-41.215h-41.215V417.66z"/>
	<path d="M376.842,376.445h-57.701v-57.701h57.701V376.445z M327.384,368.202h41.215v-41.215h-41.215V368.202z"/>
	<path d="M376.842,326.988h-57.701v-57.699h57.701V326.988z M327.384,318.745h41.215v-41.214h-41.215V318.745z"/>
	<path d="M376.842,277.531h-57.701V219.83h57.701V277.531z M327.384,269.288h41.215v-41.215h-41.215V269.288z"/>
	<path d="M426.3,475.361h-57.701V417.66H426.3V475.361z M376.842,467.118h41.215v-41.215h-41.215V467.118z"/>
	<path d="M426.3,425.903h-57.701v-57.701H426.3V425.903z M376.842,417.66h41.215v-41.215h-41.215V417.66z"/>
	<path d="M426.3,376.445h-57.701v-57.701H426.3V376.445z M376.842,368.202h41.215v-41.215h-41.215V368.202z"/>
	<path d="M426.3,326.988h-57.701v-57.699H426.3V326.988z M376.842,318.745h41.215v-41.214h-41.215V318.745z"/>
	<path d="M426.3,277.531h-57.701V219.83H426.3V277.531z M376.842,269.288h41.215v-41.215h-41.215V269.288z"/>
	<path d="M475.758,475.361h-57.701V417.66h57.701V475.361z M426.3,467.118h41.215v-41.215H426.3V467.118z"/>
	<path d="M475.758,425.903h-57.701v-57.701h57.701V425.903z M426.3,417.66h41.215v-41.215H426.3V417.66z"/>
	<path d="M475.758,376.445h-57.701v-57.701h57.701V376.445z M426.3,368.202h41.215v-41.215H426.3V368.202z"/>
	<path d="M475.758,326.988h-57.701v-57.699h57.701V326.988z M426.3,318.745h41.215v-41.214H426.3V318.745z"/>
	<path d="M475.758,277.531h-57.701V219.83h57.701V277.531z M426.3,269.288h41.215v-41.215H426.3V269.288z"/>
	<path d="M525.216,475.361h-57.701V417.66h57.701V475.361z M475.758,467.118h41.215v-41.215h-41.215V467.118z"/>
	<path d="M525.216,425.903h-57.701v-57.701h57.701V425.903z M475.758,417.66h41.215v-41.215h-41.215V417.66z"/>
	<path d="M525.216,376.445h-57.701v-57.701h57.701V376.445z M475.758,368.202h41.215v-41.215h-41.215V368.202z"/>
	<path d="M525.216,326.988h-57.701v-57.699h57.701V326.988z M475.758,318.745h41.215v-41.214h-41.215V318.745z"/>
	<path d="M525.216,277.531h-57.701V219.83h57.701V277.531z M475.758,269.288h41.215v-41.215h-41.215V269.288z"/>
</g>
</svg>
