<?xml version="1.0" encoding="utf-8"?>
<!-- Generator: Adobe Illustrator 17.0.0, SVG Export Plug-In . SVG Version: 6.00 Build 0)  -->
<!DOCTYPE svg PUBLIC "-//W3C//DTD SVG 1.1//EN" "http://www.w3.org/Graphics/SVG/1.1/DTD/svg11.dtd">
<svg version="1.1" id="Calque_1" xmlns="http://www.w3.org/2000/svg" xmlns:xlink="http://www.w3.org/1999/xlink" x="0px" y="0px"
	 width="595.28px" height="595.28px" viewBox="0 0 595.28 595.28" enable-background="new 0 0 595.28 595.28" xml:space="preserve">
<path d="M426.365,476.192h-256.73V269.153h256.73V476.192z M177.917,467.91h240.167V277.434H177.917V467.91z"/>
<rect x="347.69" y="318.841" width="74.535" height="8.282"/>
<rect x="347.69" y="368.531" width="74.535" height="8.282"/>
<rect x="347.69" y="418.221" width="74.535" height="8.282"/>
<path d="M202.761,273.294h-8.282v-49.69c0-1.035,1.183-103.52,103.52-103.52s103.52,102.485,103.52,103.52l-8.282,0.004
	c0-0.241-0.181-24.399-12.112-48.092c-15.752-31.287-43.721-47.15-83.126-47.15c-39.406,0-67.374,15.864-83.127,47.15
	c-11.93,23.694-12.111,47.851-12.111,48.092V273.294z"/>
</svg>
