<?xml version="1.0" encoding="utf-8"?>
<!-- Generator: Adobe Illustrator 17.0.0, SVG Export Plug-In . SVG Version: 6.00 Build 0)  -->
<!DOCTYPE svg PUBLIC "-//W3C//DTD SVG 1.1//EN" "http://www.w3.org/Graphics/SVG/1.1/DTD/svg11.dtd">
<svg version="1.1" id="Calque_1" xmlns="http://www.w3.org/2000/svg" xmlns:xlink="http://www.w3.org/1999/xlink" x="0px" y="0px"
	 width="595.28px" height="595.28px" viewBox="0 0 595.28 595.28" enable-background="new 0 0 595.28 595.28" xml:space="preserve">
<g>
	<path d="M298.533,314.623c-56.815,0-103.037-46.222-103.037-103.036c0-56.815,46.222-103.037,103.037-103.037
		c56.814,0,103.036,46.222,103.036,103.037C401.569,268.401,355.347,314.623,298.533,314.623z M298.533,116.793
		c-52.27,0-94.794,42.524-94.794,94.794c0,52.269,42.524,94.793,94.794,94.793c52.269,0,94.793-42.524,94.793-94.793
		C393.326,159.317,350.801,116.793,298.533,116.793z"/>
	<path d="M154.28,483.604h-8.243v-49.458c0-52.353,26.531-91.081,76.723-111.994c37.425-15.592,74.224-15.772,75.773-15.772
		l0.001,8.243c-0.365,0-36.898,0.204-72.813,15.228c-47.405,19.827-71.441,54.918-71.441,104.296V483.604z"/>
	<path d="M451.026,483.604h-8.243v-49.458c0-49.377-24.037-84.469-71.439-104.296c-35.915-15.024-72.448-15.228-72.813-15.228
		l0.001-8.243c1.547,0,38.348,0.18,75.771,15.772c50.193,20.913,76.723,59.641,76.723,111.994V483.604z"/>
	<path d="M298.533,289.896c-26.135,0-51.313-24.877-52.372-25.936l5.827-5.831c0.236,0.236,23.845,23.524,46.545,23.524
		c22.758,0,46.306-23.287,46.543-23.521l5.828,5.828C349.843,265.019,324.666,289.896,298.533,289.896z"/>
</g>
</svg>
