<?xml version="1.0" encoding="utf-8"?>
<!-- Generator: Adobe Illustrator 17.0.0, SVG Export Plug-In . SVG Version: 6.00 Build 0)  -->
<!DOCTYPE svg PUBLIC "-//W3C//DTD SVG 1.1//EN" "http://www.w3.org/Graphics/SVG/1.1/DTD/svg11.dtd">
<svg version="1.1" id="Calque_1" xmlns="http://www.w3.org/2000/svg" xmlns:xlink="http://www.w3.org/1999/xlink" x="0px" y="0px"
	 width="595.28px" height="595.28px" viewBox="0 0 595.28 595.28" enable-background="new 0 0 595.28 595.28" xml:space="preserve">
<g>
	<g>
		
			<rect x="147.065" y="339.562" transform="matrix(0.7071 0.7071 -0.7071 0.7071 337.1793 14.3967)" width="8.293" height="149.296"/>
		<path d="M274.375,394.724c-27.695,0-53.73-10.784-73.312-30.366c-40.424-40.424-40.424-106.2,0-146.624
			c19.581-19.583,45.617-30.366,73.312-30.366c27.692,0,53.728,10.784,73.31,30.366c40.424,40.424,40.424,106.2,0,146.624
			C328.103,383.941,302.067,394.724,274.375,394.724z M274.375,195.662c-25.479,0-49.432,9.921-67.447,27.936
			c-37.189,37.19-37.189,97.703,0,134.895c18.015,18.014,41.968,27.936,67.447,27.936c25.478,0,49.429-9.922,67.446-27.936
			c37.189-37.192,37.189-97.704,0-134.895C323.804,205.583,299.853,195.662,274.375,195.662z"/>
	</g>
	<g>
		<path d="M461.909,306.876h-42.94v-41.78h42.94V306.876z M427.264,298.582h26.352V273.39h-26.352V298.582z M459.426,257.514
			h-39.795l0.151-4.294c0.483-13.664,1.79-22.973,3.996-28.456c2.298-5.724,7.784-11.918,16.775-18.932l8.429-6.6
			c2.468-1.855,4.409-3.827,5.837-5.913c2.643-3.648,3.896-7.437,3.896-11.679c0-5.037-1.434-9.5-4.379-13.646
			c-2.592-3.648-7.773-5.497-15.403-5.497c-7.484,0-12.557,2.283-15.506,6.979c-3.345,5.326-4.971,10.669-4.971,16.335v4.147h-41.96
			l0.181-4.321c0.983-23.345,9.385-40.214,24.975-50.138c9.736-6.269,21.797-9.454,35.834-9.454c18.268,0,33.722,4.475,45.94,13.3
			c12.633,9.129,19.04,22.734,19.04,40.44c0,10.894-2.794,20.254-8.308,27.819c-3.154,4.495-8.948,10.017-17.674,16.821
			l-8.211,6.376c-3.823,2.975-6.272,6.294-7.484,10.14c-0.551,1.746-1.226,5.326-1.312,12.478L459.426,257.514z M428.26,249.22
			h23.044c0.227-4.601,0.745-8.147,1.574-10.773c1.712-5.428,5.178-10.204,10.306-14.194l8.208-6.375
			c7.949-6.198,13.34-11.279,16.022-15.098c4.498-6.177,6.758-13.894,6.758-22.995c0-15.102-5.103-26.131-15.606-33.717
			c-10.77-7.783-24.594-11.729-41.08-11.729c-12.417,0-22.968,2.74-31.36,8.144c-12.422,7.908-19.272,20.749-20.884,39.18h25.155
			c0.656-5.716,2.668-11.283,6.005-16.599c4.528-7.208,12.109-10.862,22.531-10.862c10.47,0,17.928,3.024,22.164,8.987
			c3.923,5.519,5.913,11.726,5.913,18.45c0,5.968-1.82,11.504-5.413,16.456c-1.874,2.739-4.441,5.366-7.565,7.716l-8.37,6.554
			c-9.593,7.484-13.008,12.553-14.188,15.488C430.347,230.66,428.93,236.615,428.26,249.22z"/>
	</g>
</g>
</svg>
