<?xml version="1.0" encoding="utf-8"?>
<!-- Generator: Adobe Illustrator 17.0.0, SVG Export Plug-In . SVG Version: 6.00 Build 0)  -->
<!DOCTYPE svg PUBLIC "-//W3C//DTD SVG 1.1//EN" "http://www.w3.org/Graphics/SVG/1.1/DTD/svg11.dtd">
<svg version="1.1" id="Calque_1" xmlns="http://www.w3.org/2000/svg" xmlns:xlink="http://www.w3.org/1999/xlink" x="0px" y="0px"
	 width="595.28px" height="595.28px" viewBox="0 0 595.28 595.28" enable-background="new 0 0 595.28 595.28" xml:space="preserve">
<g>
	<path d="M130.696,446.239c-10.429,0-36.234-2.068-56.639-20.727c-17.832-16.307-26.875-41.022-26.875-73.453l0.086-0.839
		c11.404-54.808,52.591-70.836,87.354-67.549c28.938,2.73,50.99,18.409,51.297,36.471l-8.23,0.139
		c-0.226-13.411-19.894-26.157-43.842-28.418c-31.126-2.941-68.019,11.463-78.436,60.621c0.076,29.814,8.218,52.338,24.199,66.954
		c23.005,21.035,54.683,18.471,54.994,18.439l0.367-0.016h337.821c-0.012-0.003,17.195-0.873,34.044-8.915
		c21.915-10.458,33.027-27.713,33.027-51.285c0-32.211-19.631-45.153-31.333-49.999c-19.588-8.114-43.639-4.964-55.933,7.324
		l-5.819-5.819c14.745-14.747,42.037-18.584,64.902-9.108c23.14,9.585,36.412,30.58,36.412,57.602
		c0,26.725-13.121,47.066-37.945,58.824c-18.337,8.685-36.414,9.569-37.174,9.604l-337.832,0.003
		C134.57,446.138,133.011,446.239,130.696,446.239z"/>
	<path d="M420.517,251.456l-8.12-1.345c4.286-25.892-5.024-47.087-27.67-62.992c-17.355-12.192-36.39-16.585-36.581-16.628
		c-57.248-9.446-88.47,37.221-89.772,39.211l-6.897-4.49c0.347-0.533,35.36-53.166,98.242-42.798
		C350.773,162.645,432.059,181.713,420.517,251.456z"/>
	<path d="M125.239,287.503c-0.019-0.702-1.29-70.305,56.423-91.054l0.321-0.102c84.08-22.639,105.959,46.993,106.171,47.701
		l-7.884,2.357l3.942-1.179l-3.939,1.187c-0.78-2.564-19.927-62.545-95.985-42.163c-51.889,18.79-50.839,82.385-50.822,83.025
		L125.239,287.503z"/>
	<path d="M476.064,320.941l-8.192-0.777c0.028-0.313,2.722-31.692-15.128-50.656c-9.675-10.282-23.795-15.163-41.976-14.608
		c-6.917,0.691-26.389,4.841-30.166,15.417l-7.75-2.77c6.305-17.651,36.121-20.732,37.387-20.855
		c20.918-0.651,37.171,5.114,48.535,17.215C479.169,285.623,476.201,319.508,476.064,320.941z"/>
</g>
</svg>
