<?xml version="1.0" encoding="utf-8"?>
<!-- Generator: Adobe Illustrator 17.0.0, SVG Export Plug-In . SVG Version: 6.00 Build 0)  -->
<!DOCTYPE svg PUBLIC "-//W3C//DTD SVG 1.1//EN" "http://www.w3.org/Graphics/SVG/1.1/DTD/svg11.dtd">
<svg version="1.1" id="Calque_1" xmlns="http://www.w3.org/2000/svg" xmlns:xlink="http://www.w3.org/1999/xlink" x="0px" y="0px"
	 width="595.28px" height="595.28px" viewBox="0 0 595.28 595.28" enable-background="new 0 0 595.28 595.28" xml:space="preserve">
<g>
	<path d="M129.922,402.77c-10.479,0-36.4-2.078-56.898-20.823c-17.916-16.382-27.001-41.211-27.001-73.795l0.086-0.842
		c11.457-55.059,52.847-71.145,87.757-67.863c29.073,2.744,51.228,18.496,51.536,36.642l-8.268,0.14
		c-0.227-13.473-19.986-26.281-44.045-28.551c-31.27-2.952-68.334,11.515-78.799,60.9c0.077,29.956,8.256,52.584,24.312,67.267
		c23.113,21.135,54.928,18.547,55.247,18.524l0.369-0.016h339.386c-0.012-0.004,17.274-0.877,34.201-8.957
		c22.016-10.508,33.18-27.843,33.18-51.524c0-32.36-19.722-45.361-31.478-50.229c-19.683-8.153-43.842-4.991-56.192,7.357
		l-5.846-5.846c14.813-14.816,42.232-18.663,65.201-9.15c23.248,9.63,36.582,30.723,36.582,57.869
		c0,26.849-13.182,47.284-38.121,59.097c-18.422,8.727-36.583,9.613-37.346,9.647l-339.396,0.004
		C133.815,402.666,132.248,402.77,129.922,402.77z"/>
	<path d="M421.086,207.083l-8.157-1.351c4.318-26.088-5.099-47.425-27.988-63.418c-17.446-12.189-36.368-16.529-36.556-16.57
		c-57.507-9.487-88.883,37.392-90.191,39.393l-6.929-4.511c0.35-0.536,35.542-53.412,98.697-42.995
		C351.019,117.86,432.681,137.018,421.086,207.083z"/>
	<path d="M124.441,243.298c-0.019-0.704-1.296-70.63,56.684-91.476l0.323-0.101c84.462-22.74,106.45,47.211,106.662,47.919
		l-7.921,2.371l3.96-1.186l-3.958,1.192c-0.783-2.577-20.019-62.83-96.43-42.359c-52.129,18.877-51.074,82.769-51.057,83.412
		L124.441,243.298z"/>
	<path d="M476.89,276.891l-8.23-0.779c0.028-0.316,2.734-31.84-15.199-50.894c-9.718-10.325-23.903-15.236-42.169-14.674
		c-6.949,0.694-26.511,4.865-30.306,15.489l-7.786-2.78c6.334-17.734,36.288-20.831,37.56-20.955
		c21.015-0.678,37.342,5.138,48.759,17.294C480.009,241.408,477.027,275.453,476.89,276.891z"/>
</g>
<rect x="293.504" y="309.113" width="8.268" height="173.622"/>
<rect x="263.564" y="466.2" transform="matrix(0.7071 0.7071 -0.7071 0.7071 416.1199 -63.9348)" width="43.344" height="8.267"/>
<rect x="305.906" y="448.662" transform="matrix(0.7071 0.7071 -0.7071 0.7071 423.3846 -81.4733)" width="8.267" height="43.344"/>
</svg>
