<?xml version="1.0" encoding="utf-8"?>
<!-- Generator: Adobe Illustrator 17.0.0, SVG Export Plug-In . SVG Version: 6.00 Build 0)  -->
<!DOCTYPE svg PUBLIC "-//W3C//DTD SVG 1.1//EN" "http://www.w3.org/Graphics/SVG/1.1/DTD/svg11.dtd">
<svg version="1.1" id="Calque_1" xmlns="http://www.w3.org/2000/svg" xmlns:xlink="http://www.w3.org/1999/xlink" x="0px" y="0px"
	 width="595.28px" height="595.28px" viewBox="0 0 595.28 595.28" enable-background="new 0 0 595.28 595.28" xml:space="preserve">
<g>
	<path d="M397.443,413.276H134.057V213.669h263.386V413.276z M142.324,405.008h246.85V221.937h-246.85V405.008z"/>
	<path d="M461.225,419.122l-72.05-72.047v-67.204l72.05-72.047V419.122z M397.443,343.651l55.514,55.511v-171.38l-55.514,55.513
		V343.651z"/>
	<path d="M333.664,221.937H197.836V181.78h135.828V221.937z M206.104,213.669h119.292v-23.622H206.104V213.669z"/>
	<path d="M345.476,285.716c-11.072,0-20.08-9.008-20.08-20.079s9.008-20.079,20.08-20.079c11.069,0,20.077,9.008,20.077,20.079
		S356.545,285.716,345.476,285.716z M345.476,253.827c-6.513,0-11.812,5.298-11.812,11.811s5.299,11.811,11.812,11.811
		s11.81-5.298,11.81-11.811S351.989,253.827,345.476,253.827z"/>
	<path d="M269.884,381.386H165.946V245.559h103.938V381.386z M174.214,373.119h87.402V253.827h-87.402V373.119z"/>
</g>
</svg>
