<?xml version="1.0" encoding="utf-8"?>
<!-- Generator: Adobe Illustrator 17.0.0, SVG Export Plug-In . SVG Version: 6.00 Build 0)  -->
<!DOCTYPE svg PUBLIC "-//W3C//DTD SVG 1.1//EN" "http://www.w3.org/Graphics/SVG/1.1/DTD/svg11.dtd">
<svg version="1.1" id="Calque_1" xmlns="http://www.w3.org/2000/svg" xmlns:xlink="http://www.w3.org/1999/xlink" x="0px" y="0px"
	 width="595.28px" height="595.28px" viewBox="0 0 595.28 595.28" enable-background="new 0 0 595.28 595.28" xml:space="preserve">
<g>
	
		<rect x="209.981" y="308.382" transform="matrix(0.7071 0.7071 -0.7071 0.7071 333.226 -39.3415)" width="8.242" height="148.373"/>
	<path d="M336.505,363.204c-27.522,0-53.398-10.717-72.859-30.179c-40.174-40.174-40.174-105.543,0-145.717
		c19.46-19.462,45.336-30.179,72.859-30.179s53.397,10.717,72.859,30.179c40.174,40.174,40.174,105.543,0,145.717
		C389.902,352.487,364.027,363.204,336.505,363.204z M336.505,165.372c-25.322,0-49.126,9.86-67.031,27.764
		c-36.959,36.961-36.959,97.101,0,134.061c17.904,17.903,41.709,27.764,67.031,27.764c25.319,0,49.125-9.861,67.031-27.764
		c36.959-36.961,36.959-97.101,0-134.061C385.63,175.232,361.824,165.372,336.505,165.372z"/>
</g>
<rect x="157.523" y="161.251" width="8.243" height="98.916"/>
<rect x="112.187" y="206.587" width="98.916" height="8.243"/>
</svg>
